<?xml version="1.0" standalone="no"?>
<!DOCTYPE svg PUBLIC "-//W3C//DTD SVG 20010904//EN"
 "http://www.w3.org/TR/2001/REC-SVG-20010904/DTD/svg10.dtd">
<svg version="1.0" xmlns="http://www.w3.org/2000/svg"
 width="512.000000pt" height="512.000000pt" viewBox="0 0 512.000000 512.000000"
 preserveAspectRatio="xMidYMid meet">

<g transform="translate(0.000000,512.000000) scale(0.100000,-0.100000)"
fill="#000000" stroke="none">
<path d="M2355 5050 c-151 -26 -250 -60 -434 -150 -810 -398 -1437 -1053
-1786 -1866 -117 -272 -143 -664 -69 -1034 199 -993 1109 -1806 2184 -1951 52
-7 183 -13 290 -12 365 1 740 74 1040 202 440 188 870 564 1137 994 141 228
264 531 317 777 40 190 49 291 43 518 -4 171 -10 228 -30 324 -63 288 -181
546 -351 766 -198 256 -665 740 -881 914 -413 332 -842 522 -1189 527 -56 1
-114 3 -131 5 -16 3 -79 -4 -140 -14z m220 -79 c-9 -8 -674 -394 -728 -422
-50 -26 9 15 310 217 315 211 319 213 373 213 33 1 50 -3 45 -8z m219 -41 c25
-9 75 22 -494 -305 -553 -318 -557 -320 -549 -312 3 4 221 149 485 322 510
336 485 322 558 295z m-639 -39 c-13 -12 -325 -191 -325 -186 0 12 189 135
250 162 80 35 90 38 75 24z m819 -14 c29 -13 20 -18 -480 -306 -560 -323 -531
-307 -523 -298 12 14 955 616 964 616 6 0 23 -6 39 -12z m175 -66 c15 -10 31
-1 -569 -346 -445 -256 -417 -241 -409 -231 21 23 928 586 944 586 11 0 26 -4
34 -9z m136 -63 c14 -6 25 -14 25 -17 0 -3 -226 -136 -502 -296 -573 -331
-626 -361 -615 -349 6 6 1055 671 1064 673 1 1 14 -4 28 -11z m124 -72 c-2 -2
-15 -9 -29 -15 -24 -11 -24 -11 -6 3 16 13 49 24 35 12z m114 -60 c13 -10 15
-16 5 -23 -7 -6 -249 -146 -538 -313 -289 -166 -541 -311 -560 -323 -19 -11
-30 -15 -25 -10 12 13 1087 683 1095 683 3 0 13 -7 23 -14z m120 -97 c-4 -4
-208 -123 -453 -264 -245 -142 -461 -266 -480 -278 -19 -11 -30 -15 -25 -10 6
6 219 140 474 297 368 226 467 283 478 274 8 -6 10 -15 6 -19z m117 -69 c16
-12 22 -22 15 -28 -5 -5 -332 -195 -725 -422 -393 -227 -731 -421 -750 -433
-19 -11 -31 -16 -27 -11 9 9 1449 912 1457 913 3 0 16 -8 30 -19z m120 -95 c7
-9 11 -17 9 -19 -4 -3 -1113 -643 -1134 -654 -5 -3 -7 -2 -3 2 9 11 1101 685
1109 686 4 0 12 -7 19 -15z m-2565 -54 c-23 -21 -437 -292 -441 -288 -2 2 22
27 53 57 35 31 125 90 223 146 162 91 184 103 165 85z m2663 -34 c9 -10 -80
-66 -420 -263 -507 -292 -556 -320 -545 -308 10 10 940 583 948 584 4 0 11 -6
17 -13z m-2551 -64 c-16 -16 -822 -541 -826 -538 -2 2 16 29 40 60 41 53 66
70 414 270 204 118 372 214 374 215 2 0 1 -3 -2 -7z m2657 -32 c16 -18 -11
-34 -716 -441 -802 -462 -757 -437 -743 -423 6 5 224 142 485 303 261 162 579
358 705 437 127 79 235 143 241 143 6 0 18 -8 28 -19z m101 -101 c10 -11 16
-22 14 -24 -2 -2 -292 -170 -644 -373 -584 -336 -727 -416 -656 -365 38 26
1255 781 1262 781 3 1 14 -8 24 -19z m103 -120 l22 -29 -68 -39 c-888 -515
-1045 -603 -1073 -600 -25 3 58 57 528 351 306 191 560 347 563 347 3 0 16
-13 28 -30z m-3013 -19 c-6 -5 -185 -121 -400 -258 -214 -137 -403 -258 -420
-269 l-30 -19 26 45 c25 42 50 59 425 277 220 128 401 232 404 233 2 0 0 -4
-5 -9z m3103 -93 c-2 -6 -159 -101 -349 -210 -418 -242 -457 -264 -444 -251
19 20 770 473 783 473 8 0 12 -5 10 -12z m82 -105 c16 -21 18 -28 8 -34 -665
-388 -841 -485 -869 -481 -16 2 -28 6 -25 9 9 10 851 533 858 533 4 0 16 -12
28 -27z m-3290 -28 c0 -2 -10 -9 -22 -15 -22 -11 -22 -10 -4 4 21 17 26 19 26
11z m1830 -20 c0 -2 -10 -9 -22 -15 -22 -11 -22 -10 -4 4 21 17 26 19 26 11z
m-1885 -14 c-8 -7 -695 -441 -783 -495 -9 -5 -7 4 5 28 16 32 63 62 398 256
209 121 382 220 385 220 2 0 0 -4 -5 -9z m3423 -52 c-2 -6 -145 -93 -318 -193
-379 -219 -437 -252 -428 -241 15 16 723 444 736 445 8 0 12 -5 10 -11z
m-3327 -47 c-55 -38 -966 -609 -969 -607 -2 1 3 18 10 36 12 29 67 63 493 310
264 153 482 278 485 278 3 0 -6 -8 -19 -17z m3399 -62 c0 -6 -630 -374 -655
-382 -5 -2 -12 1 -13 6 -2 5 142 98 319 207 244 150 326 195 336 187 7 -6 13
-14 13 -18z m58 -105 c12 -27 52 -1 -405 -265 -128 -74 -170 -90 -176 -68 -2
7 548 355 564 357 3 1 11 -10 17 -24z m-1098 -40 c0 -2 -10 -9 -22 -15 -22
-11 -22 -10 -4 4 21 17 26 19 26 11z m-2385 -74 c-22 -20 -1028 -641 -1032
-637 -3 2 1 17 9 32 10 22 123 92 518 321 278 160 507 292 510 293 2 0 0 -4
-5 -9z m3549 -6 c4 -10 -15 -26 -62 -53 -421 -245 -450 -260 -440 -232 4 12
468 299 484 300 7 0 14 -7 18 -15z m-2687 -31 c-3 -3 -12 -4 -19 -1 -8 3 -5 6
6 6 11 1 17 -2 13 -5z m-207 -24 c0 -5 -10 -10 -22 -10 -19 0 -20 2 -8 10 19
13 30 13 30 0z m510 -24 c0 -2 -123 -91 -272 -196 -243 -171 -316 -225 -283
-208 6 3 167 96 359 207 l350 202 80 -3 80 -3 -152 -98 c-84 -55 -152 -101
-152 -104 0 -3 10 1 23 9 12 9 94 56 182 106 l160 90 72 -7 73 -6 -260 -169
c-357 -233 -354 -233 55 4 l280 162 73 -7 74 -7 -54 -36 c-29 -20 -204 -135
-388 -255 -307 -201 -390 -258 -335 -229 11 6 211 121 445 256 391 227 429
246 470 245 112 -3 111 -8 -10 -83 -60 -37 -110 -70 -110 -73 0 -2 15 4 33 15
17 11 72 44 122 72 89 51 90 52 153 45 35 -4 62 -11 60 -15 -2 -5 -201 -138
-443 -295 -242 -158 -444 -292 -450 -297 -13 -14 -56 -38 508 287 489 282 499
286 540 280 23 -4 50 -11 61 -14 14 -6 -96 -82 -478 -332 -463 -301 -547 -357
-521 -346 38 17 655 378 851 499 142 87 252 148 265 147 13 0 45 -8 71 -17
l48 -17 -253 -165 c-583 -380 -597 -389 -625 -388 -15 0 -57 -17 -94 -39 -36
-22 -85 -45 -108 -53 -49 -16 -90 -61 -90 -98 1 -98 168 -257 330 -313 84 -28
234 -31 330 -5 154 41 306 146 388 266 40 59 55 72 165 137 67 40 125 72 130
73 4 0 -4 -23 -18 -51 -15 -28 -24 -56 -22 -62 2 -7 -184 -137 -419 -292 -434
-287 -466 -309 -449 -302 11 5 775 445 849 489 26 16 49 28 51 26 1 -2 7 -22
12 -45 l11 -42 -192 -122 c-282 -180 -269 -178 49 7 151 88 153 88 154 17 1
-32 -7 -38 -302 -234 -281 -187 -352 -237 -302 -211 11 6 148 85 305 175 157
91 286 164 288 162 6 -6 -29 -118 -50 -160 -58 -114 -188 -204 -333 -231 -151
-28 -239 -62 -300 -116 -63 -54 -77 -97 -82 -233 -5 -150 -7 -157 -44 -199
-36 -41 -115 -74 -200 -83 l-59 -6 0 80 c0 131 -31 184 -84 142 -32 -25 -46
-75 -46 -166 l0 -72 -52 -5 c-29 -3 -96 -7 -148 -8 l-95 -3 -3 122 c-2 113 -4
122 -23 128 -33 11 -68 -3 -84 -35 -10 -20 -15 -58 -15 -120 l0 -90 -97 1
c-54 1 -123 4 -153 7 l-55 7 3 91 c5 111 -5 134 -53 134 -54 0 -75 -35 -75
-129 l0 -77 -67 7 c-76 8 -112 20 -155 50 -50 36 -67 86 -82 237 -15 150 -30
199 -75 241 l-28 27 257 162 c382 242 379 245 -15 18 -121 -70 -228 -138 -238
-152 -10 -13 -23 -21 -29 -18 -5 3 -40 11 -78 18 l-68 11 321 210 c177 115
401 261 497 323 182 119 231 155 144 106 -447 -252 -1021 -591 -1013 -598 21
-23 10 -38 -23 -31 -41 9 -128 45 -128 54 0 3 111 77 245 164 237 154 247 159
313 167 147 19 329 106 429 205 72 73 93 122 75 183 -15 49 -45 75 -108 96
-28 9 -175 79 -326 155 -283 143 -398 188 -503 197 -109 10 -176 -47 -193
-160 -7 -45 -9 -47 -101 -106 -51 -34 -95 -60 -96 -58 -10 11 -35 69 -35 80 0
7 46 44 101 83 108 75 139 103 68 62 -24 -14 -75 -44 -114 -66 l-70 -41 -17
38 c-27 60 -69 213 -71 261 l-2 44 100 43 c104 45 127 52 107 32 -30 -30 -5
-22 85 28 102 56 136 68 93 33 l-25 -21 32 18 c18 10 29 22 26 27 -3 6 -1 7 5
3 6 -4 24 -1 39 7 53 27 448 111 495 106 13 -2 32 0 43 4 28 9 188 28 193 23
2 -3 -64 -53 -147 -111 -83 -59 -151 -109 -151 -111 0 -2 82 44 183 103 100
58 196 112 212 119 27 12 175 20 175 10z m-820 -10 c0 -6 -66 -46 -76 -46 -5
0 9 11 31 25 43 26 45 27 45 21z m75 -6 c3 -5 -3 -10 -14 -10 -10 0 -28 -3
-38 -6 -16 -5 -16 -4 1 10 23 18 42 21 51 6z m3179 -16 c4 -9 5 -18 4 -19 -25
-24 -426 -244 -436 -240 -8 3 -13 8 -10 11 10 9 423 263 429 264 4 0 10 -7 13
-16z m-3701 -125 c-13 -13 -48 -15 -48 -4 0 5 6 8 14 7 7 -2 10 1 7 6 -4 6 3
8 15 5 11 -3 17 -9 12 -14z m-67 -21 c4 -7 4 -10 -1 -6 -4 4 -20 1 -36 -8 -37
-19 -38 -10 -1 10 15 8 28 15 29 16 1 0 5 -6 9 -12z m2974 -37 c0 -5 -57 -41
-127 -82 -71 -40 -139 -79 -153 -88 -14 -8 -20 -10 -15 -4 13 15 278 183 288
183 4 0 7 -4 7 -9z m875 -22 c4 -11 5 -22 3 -24 -1 -1 -77 -45 -168 -98 -133
-76 -169 -93 -183 -85 -16 8 8 27 155 118 95 60 176 109 180 109 4 1 10 -8 13
-20z m-795 -5 c22 -9 40 -19 40 -23 -1 -12 -296 -189 -325 -194 -122 -21 -164
-31 -235 -56 -44 -16 -78 -26 -76 -23 13 13 532 311 543 311 7 1 31 -6 53 -15z
m132 -65 c22 -11 36 -24 32 -29 -5 -4 -84 -56 -177 -114 l-167 -106 -16 40
c-9 21 -22 40 -30 42 -12 3 288 185 309 187 4 1 26 -8 49 -20z m-3463 -23
c-35 -31 -542 -350 -576 -363 -8 -3 -13 2 -13 14 0 14 73 60 288 185 240 139
327 187 301 164z m4166 -35 c0 -11 -304 -195 -311 -188 -12 11 18 35 144 114
81 50 152 90 157 89 6 -2 10 -8 10 -15z m-676 -56 c-7 -30 -17 -62 -23 -70 -6
-8 -74 -55 -151 -104 -155 -99 -148 -99 -157 -8 -3 28 2 34 57 66 33 19 68 43
79 53 10 9 23 15 28 12 4 -3 8 -1 8 5 0 14 55 42 65 33 5 -4 5 -2 2 4 -8 13
49 47 65 38 6 -4 8 -3 4 4 -6 10 24 35 32 27 2 -2 -2 -29 -9 -60z m709 -71
c-3 -23 -25 -39 -148 -110 -80 -46 -148 -84 -152 -84 -5 0 -8 9 -8 19 0 14 41
44 147 110 81 50 151 91 156 91 4 0 7 -12 5 -26z m-3477 -79 c-2 -5 -21 -20
-42 -33 -32 -19 -39 -20 -39 -8 0 25 39 58 63 54 12 -2 20 -7 18 -13z m2708
-54 c-11 -32 -28 -66 -37 -74 -26 -22 -243 -159 -247 -155 -6 6 24 133 32 136
4 1 64 36 133 77 69 41 128 74 132 74 4 1 -2 -26 -13 -58z m-3636 26 c-27 -46
-78 -87 -213 -172 -83 -52 -155 -95 -161 -95 -5 0 -9 13 -9 30 0 21 8 35 27
47 54 36 358 210 361 207 2 -1 0 -9 -5 -17z m3227 19 c0 -2 2 -11 5 -19 4 -9
-20 -29 -77 -62 -203 -117 -207 -116 -44 9 89 68 116 85 116 72z m1210 -60 c0
-32 -4 -35 -147 -118 -145 -83 -162 -88 -163 -48 0 13 282 199 303 200 4 0 7
-15 7 -34z m-3373 16 c8 -5 -2 -15 -28 -30 -44 -25 -50 -20 -17 15 23 25 27
26 45 15z m137 -60 c2 -4 -19 -21 -47 -36 l-52 -29 34 37 c34 35 55 44 65 28z
m-488 -196 c10 -31 16 -57 13 -59 -20 -18 -261 -149 -264 -145 -3 3 -1 28 5
56 11 49 13 52 106 112 52 35 94 65 94 67 0 3 -10 -1 -22 -9 -13 -8 -54 -32
-91 -53 l-68 -37 17 38 c9 22 18 51 18 66 1 23 15 38 81 83 l80 56 7 -60 c4
-33 15 -85 24 -115z m3294 160 c0 -15 -297 -192 -306 -183 -3 3 5 12 18 21 47
30 283 176 286 176 1 0 2 -6 2 -14z m-764 -41 c-2 -7 -38 -33 -78 -56 -40 -23
-84 -49 -98 -57 -24 -15 -24 -15 -9 2 9 10 54 48 100 85 56 46 85 63 87 54 2
-8 1 -20 -2 -28z m-1878 7 l32 -18 -72 -42 c-40 -23 -97 -55 -126 -72 -31 -18
-50 -25 -45 -16 17 31 149 164 163 164 8 1 30 -7 48 -16z m1337 -10 c-12 -10
-204 -122 -210 -122 -3 0 -2 7 2 16 3 9 52 38 107 65 106 50 116 54 101 41z
m-2470 -11 c-6 -5 -50 -37 -100 -71 -57 -38 -91 -56 -94 -48 -2 6 0 14 5 15 5
2 50 28 99 58 90 54 107 63 90 46z m4202 -66 c-4 -10 -280 -175 -293 -175 -2
0 -4 13 -4 28 0 25 15 37 148 120 145 92 147 93 150 67 2 -15 1 -32 -1 -40z
m-4514 4 c-5 -5 -71 -47 -146 -93 -92 -57 -137 -80 -139 -70 0 8 -1 18 -2 24
-1 5 64 47 144 93 106 62 146 80 148 70 2 -9 0 -19 -5 -24z m1619 5 c17 -9 26
-19 22 -23 -16 -13 -223 -131 -231 -131 -4 0 30 38 77 85 47 47 88 85 93 85 4
0 22 -7 39 -16z m-1167 -24 c-6 -10 -296 -197 -319 -206 -12 -5 -16 0 -16 17
0 20 26 38 162 116 143 81 191 102 173 73z m501 5 c-11 -8 -25 -15 -30 -15 -6
0 -2 7 8 15 11 8 25 15 30 15 6 0 2 -7 -8 -15z m183 -31 c-24 -26 -132 -94
-150 -94 -27 0 0 24 79 69 48 28 89 51 91 51 3 0 -6 -12 -20 -26z m1641 13
c-8 -8 -66 -54 -129 -102 -87 -67 -118 -85 -130 -78 -8 5 -16 14 -18 19 -2 7
271 173 287 174 2 0 -2 -6 -10 -13z m1313 -21 c-4 -18 -36 -42 -141 -102 -145
-84 -167 -94 -160 -72 4 11 283 196 299 197 3 1 4 -10 2 -23z m-2315 -18 c7
-7 12 -17 12 -24 0 -10 -105 -77 -175 -112 -5 -2 24 30 65 72 41 42 77 76 80
76 3 0 11 -5 18 -12z m1127 -47 c-6 -5 -64 -52 -130 -105 -105 -84 -122 -94
-138 -83 -10 6 -19 17 -20 22 0 6 62 47 139 92 128 75 173 98 149 74z m-2915
-18 c0 -12 -41 -43 -120 -91 -108 -66 -148 -80 -138 -50 3 8 233 149 256 157
1 1 2 -7 2 -16z m859 -28 c13 -25 22 -47 20 -49 -2 -2 -74 -44 -159 -94 -146
-84 -155 -88 -162 -68 -19 65 -16 69 130 165 75 50 139 91 142 91 3 0 16 -20
29 -45z m3653 4 c-7 -30 -24 -43 -161 -122 -84 -49 -155 -87 -157 -84 -3 2 0
16 5 29 7 18 57 55 163 121 84 53 154 94 156 93 2 -2 -1 -19 -6 -37z m-3270
-51 c-81 -82 -82 -83 -109 -68 -14 8 -25 20 -25 25 2 10 190 124 207 125 5 0
-27 -37 -73 -82z m-197 52 c-10 -11 -21 -17 -24 -14 -3 3 3 12 13 20 28 20 32
17 11 -6z m390 -120 c-48 -48 -88 -80 -100 -80 -32 0 -66 12 -63 21 3 10 218
138 233 139 5 0 -26 -36 -70 -80z m2654 45 c-15 -13 -298 -173 -288 -161 18
20 285 180 288 173 1 -4 1 -10 0 -12z m-3051 -120 c38 -25 41 -29 25 -40 -47
-31 -391 -225 -399 -225 -9 0 -44 51 -44 64 0 3 29 24 65 47 69 43 91 66 28
28 -21 -12 -53 -31 -71 -41 l-32 -20 -16 37 c-8 20 -14 41 -12 46 2 5 75 56
163 113 l159 105 46 -43 c25 -24 65 -56 88 -71z m-730 100 c-15 -15 -143 -93
-147 -89 -6 5 -7 4 74 52 65 39 86 49 73 37z m-298 -32 c0 -25 -13 -36 -108
-93 -58 -36 -112 -66 -119 -68 -8 -2 -13 7 -13 26 0 27 9 35 113 95 61 36 115
65 120 66 4 1 7 -11 7 -26z m2865 -28 c-28 -25 -60 -45 -73 -45 -13 0 -21 4
-17 10 6 9 125 80 135 79 3 0 -17 -20 -45 -44z m-2450 -44 c-6 -4 -58 -40
-117 -79 -79 -53 -108 -68 -112 -57 -3 10 17 28 67 56 40 23 90 52 112 65 40
24 68 32 50 15z m835 -95 c-5 -5 -117 -71 -247 -147 l-238 -137 -30 23 c-16
12 -30 27 -30 33 0 6 92 71 205 144 l204 133 73 -20 c44 -12 68 -24 63 -29z
m-1223 0 c-5 -13 -201 -136 -217 -136 -6 0 -11 7 -11 15 -1 8 -2 20 -3 25 -1
6 48 39 109 75 91 53 111 61 118 49 5 -8 7 -21 4 -28z m4428 25 c-3 -5 -58
-40 -123 -77 -141 -80 -139 -79 -130 -70 10 12 242 155 251 156 5 0 6 -4 2 -9z
m-4381 -167 c6 -19 -7 -30 -99 -88 -58 -37 -110 -64 -114 -61 -5 3 -14 18 -19
34 -10 29 -10 29 101 94 113 65 117 66 131 21z m4345 16 c-8 -12 -99 -71 -203
-131 -171 -99 -224 -125 -181 -89 29 24 390 248 394 244 2 -2 -2 -13 -10 -24z
m-4295 -138 c2 -4 -43 -37 -101 -72 -125 -77 -126 -77 -121 -55 1 9 48 44 103
76 106 61 111 64 119 51z m4246 -20 c0 -5 -6 -16 -12 -25 -16 -20 -448 -271
-455 -263 -3 2 26 24 63 48 38 24 141 89 229 145 160 102 175 110 175 95z
m-3771 -16 c-21 -19 -223 -136 -227 -132 -3 4 -3 8 -1 11 11 11 214 125 223
125 5 0 7 -2 5 -4z m-413 -81 c9 -14 15 -27 13 -29 -12 -10 -217 -136 -222
-136 -4 0 -13 13 -22 30 -14 27 -14 30 2 40 89 54 199 118 205 119 4 1 15 -10
24 -24z m500 -12 c-17 -18 -241 -151 -246 -146 -3 2 2 8 10 13 8 5 65 38 125
74 109 64 125 73 111 59z m2498 -81 c-135 -97 -163 -110 -129 -58 19 28 71 63
113 76 50 15 55 10 16 -18z m-2101 2 c81 -41 110 -103 113 -249 1 -60 6 -121
12 -135 20 -49 72 -109 117 -136 l46 -26 -128 -74 c-70 -41 -132 -74 -138 -74
-5 0 -27 10 -48 23 l-38 23 121 84 c66 46 118 85 116 87 -2 3 -63 -30 -136
-71 -73 -42 -134 -76 -136 -76 -2 0 -4 78 -4 174 l0 174 68 63 67 62 -67 -37
-68 -37 0 121 0 120 35 0 c20 0 50 -7 68 -16z m3212 4 c-5 -12 -58 -44 -229
-142 -28 -15 -46 -24 -41 -18 10 10 266 172 271 172 2 0 1 -6 -1 -12z m-4040
-38 c-6 -10 -219 -140 -229 -140 -3 0 -6 6 -6 13 0 6 49 40 108 74 101 59 141
76 127 53z m2985 -53 l0 -53 -105 -72 c-57 -40 -107 -72 -110 -72 -3 0 -5 28
-5 63 l0 63 108 62 c59 34 108 62 110 62 1 0 2 -24 2 -53z m-2560 -2 c0 -2
-10 -9 -22 -15 -22 -11 -22 -10 -4 4 21 17 26 19 26 11z m-355 -44 c0 -7 -50
-43 -112 -81 -96 -60 -113 -67 -124 -54 -16 19 -14 21 111 93 102 60 125 67
125 42z m305 15 c0 -7 -102 -67 -107 -63 -2 3 20 18 49 35 58 34 58 34 58 28z
m3553 -87 c-25 -44 -48 -59 -318 -214 -278 -159 -262 -151 -252 -139 13 13
571 382 580 383 5 1 0 -13 -10 -30z m-943 -158 l0 -160 -70 -57 c-38 -32 -70
-59 -70 -61 0 -5 58 26 103 54 l37 23 0 -40 c0 -38 -3 -42 -57 -76 -118 -76
-483 -233 -514 -222 -4 2 43 46 106 98 62 52 112 96 111 98 -2 1 -99 -54 -217
-122 -208 -121 -218 -125 -299 -136 -98 -14 -411 -16 -435 -3 -12 7 39 47 220
173 129 90 233 165 231 168 -3 2 -62 -30 -133 -71 -70 -41 -199 -116 -286
-166 l-158 -90 -62 12 -61 13 64 46 c36 25 138 95 227 155 l162 110 93 8 c51
4 148 7 215 6 68 0 125 4 128 9 4 6 23 10 43 10 73 1 197 30 259 60 73 36 111
80 128 148 12 46 15 49 116 109 57 34 107 62 112 63 4 0 7 -72 7 -159z m-2833
130 c11 -18 2 -26 -104 -91 l-116 -71 -21 21 c-12 13 -16 24 -11 26 6 2 60 33
120 69 61 35 112 65 115 65 3 0 11 -9 17 -19z m90 -108 c2 -6 -49 -43 -113
-82 -109 -66 -119 -70 -133 -55 -9 9 -12 18 -6 20 6 3 60 33 120 69 108 63
125 69 132 48z m91 -95 c-6 -18 -220 -148 -238 -145 -36 6 -8 34 95 93 106 61
151 78 143 52z m874 -141 l77 -23 -140 -87 c-76 -48 -143 -87 -147 -87 -5 0
-32 13 -61 28 l-52 29 118 81 c65 45 120 82 123 81 3 0 40 -10 82 -22z m-705
-23 c-6 -6 -61 -41 -121 -78 -106 -65 -110 -67 -128 -49 -18 18 -15 21 104 89
99 56 126 68 140 60 14 -8 15 -13 5 -22z m970 -23 c32 -6 27 -10 -134 -111
-92 -58 -172 -106 -178 -108 -6 -1 -37 9 -69 23 l-59 26 24 17 c13 9 73 52
134 94 l110 78 70 -6 c39 -4 85 -9 102 -13z m323 -24 c-30 -18 -144 -84 -253
-147 l-198 -113 -55 17 -55 17 174 124 173 124 115 4 c63 1 123 4 134 5 11 1
-5 -13 -35 -31z m-1187 -22 c2 -12 -212 -144 -235 -145 -41 0 -18 20 95 87
120 70 137 77 140 58z m111 -71 c9 -3 16 -10 16 -14 0 -5 -52 -41 -115 -80
-99 -61 -117 -69 -135 -60 -12 6 -20 15 -18 21 3 8 216 137 230 138 3 1 13 -2
22 -5z m141 -86 c14 -6 25 -14 25 -17 0 -3 -52 -38 -115 -78 l-115 -72 -30 17
c-16 9 -30 19 -30 22 0 4 230 140 237 140 1 0 14 -5 28 -12z m1880 -37 c-6 -5
-145 -98 -310 -207 -283 -187 -303 -198 -360 -205 -33 -4 -61 -6 -63 -4 -2 1
50 33 115 71 613 353 643 370 618 345z m-1714 -45 l33 -14 -75 -47 c-41 -26
-94 -60 -118 -75 -43 -27 -45 -28 -78 -12 -22 10 -30 19 -23 26 7 7 214 131
226 135 1 1 17 -5 35 -13z m201 -74 c4 -4 -45 -40 -110 -81 -115 -72 -117 -73
-156 -61 l-39 12 104 60 c57 33 113 66 124 74 19 13 62 10 77 -4z m1723 -31
c-35 -31 -134 -96 -172 -113 -81 -36 -55 -12 59 55 111 65 131 75 113 58z
m-1430 -29 c-15 -13 -215 -136 -252 -156 -18 -9 -33 -13 -33 -8 0 4 64 45 142
90 136 78 164 93 143 74z m205 -10 c0 -13 -296 -192 -318 -192 -12 0 -22 3
-22 8 0 8 318 192 332 192 4 0 8 -3 8 -8z m245 -1 c-27 -25 -350 -221 -366
-221 -46 0 -16 24 143 116 95 54 179 102 188 106 23 10 46 10 35 -1z m173 -26
c-23 -23 -327 -205 -342 -205 -11 0 -17 2 -15 4 6 6 353 206 358 206 2 0 2 -2
-1 -5z m272 -135 c-24 -19 -40 -25 -40 -15 0 5 51 34 60 34 3 0 -6 -8 -20 -19z"/>
<path d="M2510 2063 c-71 -26 -141 -105 -202 -231 -60 -122 -59 -118 -60 -194
-1 -32 -5 -58 -10 -58 -4 0 -8 -7 -8 -15 0 -12 4 -14 17 -6 12 7 25 4 43 -8
52 -36 89 -43 230 -45 77 0 140 -2 140 -3 0 0 -37 -23 -82 -49 -101 -58 -268
-164 -268 -170 0 -7 25 7 222 122 98 57 183 104 188 104 24 0 87 40 108 70 88
119 -19 396 -183 474 -63 30 -73 30 -135 9z m79 -97 c9 -11 4 -18 -25 -35 -46
-28 -52 -22 -19 18 31 36 29 35 44 17z m19 -370 c-19 -30 -29 -36 -58 -36
l-35 1 22 18 c12 10 20 21 18 25 -3 3 -2 4 1 1 9 -6 64 27 65 40 0 5 3 5 5 -2
3 -6 -5 -28 -18 -47z m-203 34 c-3 -5 -11 -10 -16 -10 -6 0 -7 5 -4 10 3 6 11
10 16 10 6 0 7 -4 4 -10z"/>
<path d="M2234 1854 c-18 -14 -18 -15 4 -4 12 6 22 13 22 15 0 8 -5 6 -26 -11z"/>
<path d="M2085 1631 c-129 -76 -176 -111 -150 -111 7 0 292 177 310 192 28 25
-26 -3 -160 -81z"/>
<path d="M3068 1246 c-199 -115 -334 -201 -345 -220 -4 -5 9 -1 28 11 19 11
99 58 179 104 167 95 359 220 340 219 -3 0 -94 -52 -202 -114z"/>
<path d="M1214 1924 c-18 -14 -18 -15 4 -4 12 6 22 13 22 15 0 8 -5 6 -26 -11z"/>
</g>
</svg>
